<?xml version="1.0" standalone="no"?>
<!DOCTYPE svg PUBLIC "-//W3C//DTD SVG 20010904//EN"
 "http://www.w3.org/TR/2001/REC-SVG-20010904/DTD/svg10.dtd">
<svg version="1.0" xmlns="http://www.w3.org/2000/svg"
 width="120.000000pt" height="74.000000pt" viewBox="0 0 120.000000 74.000000"
 preserveAspectRatio="xMidYMid meet">
<metadata>
Created by potrace 1.16, written by Peter Selinger 2001-2019
</metadata>
<g transform="translate(0.000000,74.000000) scale(0.017118,-0.013144)"
fill="#000000" stroke="none">
<path d="M2171 3945 c-2 -61 12 -85 49 -85 51 0 50 17 50 -644 0 -427 -3 -616
-11 -616 -5 0 -8 -4 -4 -9 3 -6 -14 -11 -37 -13 l-43 -3 -3 -57 -3 -58 406 0
c263 0 405 3 405 10 0 6 16 10 36 10 21 0 33 4 29 10 -4 6 5 10 19 10 14 0 26
5 26 10 0 6 7 10 16 10 9 0 29 13 44 30 15 16 33 30 40 30 15 0 41 26 33 34
-4 3 1 6 11 6 9 0 15 4 11 9 -3 5 5 20 17 33 13 13 24 30 26 38 2 8 8 17 13
18 5 2 9 10 9 18 0 9 5 12 10 9 6 -4 10 7 10 24 0 17 5 31 10 31 6 0 10 16 10
35 0 19 5 35 10 35 6 0 10 125 10 355 0 230 -4 355 -10 355 -5 0 -10 14 -10
30 0 17 -4 30 -10 30 -5 0 -10 14 -10 30 0 17 -4 30 -10 30 -5 0 -10 8 -10 18
0 10 -9 24 -20 32 -11 8 -20 20 -20 28 0 16 -46 63 -54 55 -3 -4 -6 1 -6 11 0
9 -4 14 -10 11 -5 -3 -10 1 -10 9 0 9 -7 16 -15 16 -8 0 -15 5 -15 10 0 6 -7
10 -15 10 -8 0 -15 5 -15 10 0 6 -7 10 -16 10 -8 0 -22 7 -31 15 -8 8 -19 13
-24 10 -5 -4 -9 -1 -9 4 0 6 -9 11 -20 11 -11 0 -20 5 -20 10 0 6 -18 10 -40
10 -22 0 -40 5 -40 10 0 6 -133 10 -378 10 l-379 0 -2 -55z m333 -21 c3 -9 6
-121 6 -250 0 -227 -1 -234 -20 -234 -19 0 -20 7 -20 250 0 207 2 250 14 250
8 0 17 -7 20 -16z m351 -54 c3 -5 17 -10 31 -10 17 0 24 -5 24 -20 0 -11 7
-20 16 -20 8 0 12 -4 9 -10 -3 -5 1 -10 10 -10 9 0 19 -9 22 -20 3 -11 9 -20
14 -20 5 0 9 -203 9 -465 0 -303 3 -465 10 -465 6 0 10 -8 10 -17 0 -16 -2
-16 -10 -3 -8 11 -10 -5 -10 -55 2 -110 2 -111 -27 -126 -16 -8 -37 -22 -47
-31 -16 -15 -39 -18 -133 -18 l-113 0 0 635 c0 495 3 639 13 650 14 17 162 21
172 5z m238 -104 c9 -7 17 -21 17 -30 0 -10 5 -14 10 -11 6 4 10 -5 10 -19 0
-14 5 -26 10 -26 6 0 10 -9 10 -20 0 -11 5 -20 10 -20 6 0 10 -25 10 -55 0
-30 5 -55 10 -55 6 0 10 -109 10 -306 0 -201 -3 -303 -10 -299 -6 4 -10 -19
-10 -62 0 -48 -3 -63 -10 -53 -7 11 -10 5 -10 -23 0 -23 -4 -36 -10 -32 -5 3
-10 -1 -10 -11 0 -9 -9 -25 -21 -35 -11 -9 -21 -21 -22 -26 -1 -4 -9 -7 -17
-6 -8 1 -18 -3 -21 -9 -4 -7 -9 -7 -13 1 -4 6 -2 11 3 11 7 0 11 23 11 55 0
30 5 55 10 55 14 0 14 832 -1 847 -8 8 -7 17 3 33 10 18 10 24 1 27 -7 3 -13
18 -13 34 0 16 -5 29 -12 29 -9 0 -8 4 2 10 20 13 32 12 53 -4z m-585 -991 c2
-212 -4 -275 -29 -275 -5 0 -9 113 -9 251 0 233 1 250 18 247 15 -3 17 -23 20
-223z"/>
<path d="M4210 2830 l0 -190 50 0 50 0 0 65 c0 37 4 65 10 65 6 0 10 -11 10
-25 0 -14 5 -25 10 -25 6 0 10 -18 10 -40 0 -38 2 -40 30 -40 29 0 30 2 30 46
0 27 -4 43 -10 39 -6 -4 -10 23 -10 74 0 47 4 81 10 81 6 0 10 14 10 30 0 17
5 30 10 30 6 0 10 5 10 10 0 6 -18 10 -40 10 -38 0 -40 -2 -40 -30 0 -16 -4
-30 -10 -30 -5 0 -10 -7 -10 -15 0 -8 -4 -15 -10 -15 -6 0 -10 32 -10 75 l0
75 -50 0 -50 0 0 -190z"/>
<path d="M3566 2943 c-16 -8 -31 -24 -33 -34 -3 -11 -9 -19 -14 -19 -5 0 -9
-43 -9 -95 0 -52 4 -95 9 -95 5 0 13 -9 16 -20 3 -11 13 -20 21 -20 8 0 14 -4
14 -10 0 -5 23 -10 50 -10 28 0 50 5 50 10 0 6 7 10 16 10 34 0 43 31 44 148
0 73 -4 111 -10 107 -5 -3 -10 1 -10 9 0 10 -9 16 -25 16 -14 0 -25 5 -25 10
0 15 -61 10 -94 -7z"/>
<path d="M3930 2950 c0 -5 -7 -10 -16 -10 -36 0 -44 -25 -44 -140 0 -115 8
-140 44 -140 9 0 16 -4 16 -10 0 -5 18 -10 40 -10 22 0 40 5 40 10 0 6 7 10
16 10 27 0 44 27 44 70 0 29 4 39 12 34 7 -4 8 -3 4 4 -4 7 -23 12 -42 12 -31
0 -34 -2 -34 -30 0 -17 -5 -30 -12 -30 -9 0 -8 -4 2 -10 11 -7 7 -10 -17 -10
l-33 0 0 100 c0 93 1 100 20 100 16 0 20 -7 20 -30 0 -29 2 -30 44 -30 25 0
48 5 51 10 3 6 1 10 -4 10 -6 0 -11 12 -11 26 0 29 -21 54 -44 54 -9 0 -16 5
-16 10 0 6 -18 10 -40 10 -22 0 -40 -4 -40 -10z"/>
<path d="M4550 2800 l0 -160 40 0 40 0 0 103 c1 106 11 137 44 137 11 0 16 9
16 30 0 23 -4 30 -20 30 -11 0 -20 -4 -20 -10 0 -5 -4 -10 -10 -10 -5 0 -10 9
-10 20 0 17 -7 20 -40 20 l-40 0 0 -160z"/>
<path d="M4830 2800 l0 -160 40 0 40 0 0 160 0 160 -40 0 -40 0 0 -160z"/>
<path d="M5115 2950 c3 -6 -4 -10 -16 -10 -29 0 -48 -27 -49 -67 0 -32 1 -33
40 -33 38 0 40 2 40 30 0 23 4 30 20 30 15 0 20 -7 20 -26 0 -29 -21 -54 -44
-54 -9 0 -16 -4 -16 -10 0 -5 -7 -10 -16 -10 -27 0 -44 -27 -44 -68 0 -50 8
-72 26 -72 8 0 14 -4 14 -10 0 -5 9 -10 20 -10 11 0 20 5 20 10 0 6 9 10 20
10 11 0 20 6 21 13 0 6 5 2 11 -10 9 -18 20 -23 50 -23 l38 0 0 125 c0 131
-10 175 -42 175 -10 0 -18 5 -18 10 0 6 -23 10 -51 10 -31 0 -48 -4 -44 -10z"/>
</g>
</svg>
